HIERARCHY
ROOT Hips
{
	OFFSET 0.000000 0.000000 0.000000
	CHANNELS 6 Xposition Yposition Zposition Zrotation Yrotation Xrotation 
	JOINT LHipJoint
	{
		OFFSET 0.000000 0.000000 0.000000
		CHANNELS 3 Zrotation Yrotation Xrotation
		JOINT LeftUpLeg
		{
			OFFSET 1.363060 -1.794630 0.839290
			CHANNELS 3 Zrotation Yrotation Xrotation
			JOINT LeftLeg
			{
				OFFSET 2.448110 -6.726130 0.000000
				CHANNELS 3 Zrotation Yrotation Xrotation
				JOINT LeftFoot
				{
					OFFSET 2.562200 -7.039590 0.000000
					CHANNELS 3 Zrotation Yrotation Xrotation
					JOINT LeftToeBase
					{
						OFFSET 0.157640 -0.433110 2.322550
						CHANNELS 3 Zrotation Yrotation Xrotation
						End Site
						{
							OFFSET 0.000000 0.000000 0.000000
						}
					}
				}
			}
		}
	}
	JOINT RHipJoint
	{
		OFFSET 0.000000 0.000000 0.000000
		CHANNELS 3 Zrotation Yrotation Xrotation
		JOINT RightUpLeg
		{
			OFFSET -1.305520 -1.794630 0.839290
			CHANNELS 3 Zrotation Yrotation Xrotation
			JOINT RightLeg
			{
				OFFSET -2.542530 -6.985550 0.000000
				CHANNELS 3 Zrotation Yrotation Xrotation
				JOINT RightFoot
				{
					OFFSET -2.568260 -7.056230 0.000000
					CHANNELS 3 Zrotation Yrotation Xrotation
					JOINT RightToeBase
					{
						OFFSET -0.164730 -0.452590 2.363150
						CHANNELS 3 Zrotation Yrotation Xrotation
						End Site
						{
							OFFSET 0.000000 0.000000 0.000000
						}
					}
				}
			}
		}
	}
}
MOTION
Frames: 16
Frame Time: 0.008333
1.006555 17.117127 0.831976 -136.144710 -89.736198 162.566224 -9.946006 -0.153225 -0.757262 -7.534663 -4.003435 -43.273200 0.029891 2.999712 58.186872 3.314878 17.516403 -14.204205 -1.665301 0.000000 -18.309100 9.001242 -1.353592 -1.585888 17.002603 0.976370 -20.222568 2.539804 -0.958524 25.487949 -1.010291 -2.408540 -10.211176 0.040800 -0.000000 -45.928400
0.757806 17.240443 0.783400 67.391723 -89.928201 -40.677545 -9.620687 -0.415564 -0.594292 -7.985504 -4.289596 -43.667684 -0.134436 2.574457 54.232490 3.299413 17.154588 -13.123059 -1.262300 -0.000000 -19.556100 9.273052 -1.637573 -1.512647 16.439232 0.439137 -18.980086 2.569018 -0.929090 22.914469 -0.674732 -1.636070 -6.539239 -0.223900 -0.000000 -48.873100
0.507317 17.361077 0.738320 95.303707 -89.427148 -68.287805 -9.564231 -0.696895 -0.423874 -8.536104 -4.400506 -43.916806 -0.328074 2.188424 49.967817 3.251055 16.689688 -11.928905 -0.828600 0.000000 -21.057999 9.287675 -1.964551 -1.461838 15.797396 -0.051714 -17.862279 2.580083 -0.921575 20.576333 -0.365628 -0.759258 -2.713330 -0.355600 -0.000000 -51.794600
0.255363 17.477455 0.697048 122.222278 -88.757895 -94.909630 -9.638801 -0.841431 -0.247606 -9.115829 -4.247341 -44.051051 -0.574326 1.874853 45.415266 3.168394 16.116617 -10.620851 -0.371800 0.000000 -22.859400 9.176477 -2.212165 -1.444729 15.137574 -0.469806 -16.826300 2.558596 -0.906103 18.543640 -0.076383 0.269847 1.228301 -0.321100 0.000000 -54.642400
0.006860 17.591520 0.650673 153.383940 -86.981714 -125.935549 -9.666378 -0.748265 -0.325984 -10.159231 -2.931860 -43.752959 -0.958907 1.628558 40.403465 3.043454 15.420227 -9.276197 0.064700 -0.000000 -24.852900 9.153793 -2.264911 -1.343059 14.006766 -0.111655 -15.764766 2.421661 -0.914057 17.139750 0.191016 1.543318 5.127071 -0.063800 0.000000 -57.386300
-0.246438 17.694497 0.617113 161.836615 -86.119254 -134.167841 -9.562852 -0.661599 -0.191904 -10.587602 -2.338386 -43.634410 -1.251283 1.313827 35.526584 2.878427 14.582403 -7.717303 0.529600 0.000000 -27.205301 9.286500 -2.363756 -1.342131 13.545045 -0.484876 -14.937382 2.372029 -0.932358 15.754088 0.404135 2.846636 9.056616 0.384900 0.000000 -59.880200
-0.499908 17.788133 0.587017 168.364678 -85.215916 -140.521817 -9.468858 -0.579771 -0.076631 -10.992253 -1.627026 -43.398374 -1.547824 0.975582 30.620202 2.669304 13.636342 -6.040255 0.967700 -0.000000 -29.712200 9.443292 -2.460388 -1.355043 13.139260 -0.893559 -14.237914 2.320913 -0.979639 14.721177 0.559812 4.239472 12.814153 1.040100 0.000001 -62.095500
-0.753457 17.870950 0.559930 173.399838 -84.297019 -145.427369 -9.396059 -0.517145 0.019737 -11.383790 -0.828534 -43.090637 -1.844341 0.621428 25.799259 2.423434 12.612013 -4.292804 1.353400 -0.000000 -32.188099 9.605955 -2.555574 -1.382197 12.784033 -1.339374 -13.661269 2.266399 -1.047453 14.052450 0.654997 5.653070 16.287904 1.858300 -0.000001 -63.974899
-1.006432 17.941802 0.535247 177.321731 -83.371232 -149.260682 -9.350646 -0.478188 0.089272 -11.783855 0.053171 -42.782780 -2.139061 0.268762 21.203203 2.150745 11.528596 -2.533304 1.664900 -0.000000 -34.746700 9.757447 -2.642225 -1.427810 12.475060 -1.814923 -13.207464 2.204128 -1.128852 13.768941 0.694202 6.994907 19.393701 2.762200 -0.000001 -65.555000
-1.258734 18.000109 0.512225 -179.651045 -82.480022 -152.237930 -9.325384 -0.462319 0.135494 -12.220647 0.991350 -42.540620 -2.430553 -0.071212 16.963074 1.865034 10.400653 -0.872609 1.877700 -0.000001 -37.114299 9.892284 -2.722996 -1.481396 12.209142 -2.303288 -12.865565 2.131973 -1.216706 13.853678 0.684868 8.130004 22.031249 3.632600 -0.000000 -66.800600
-1.509997 18.045685 0.490172 -177.336796 -81.651530 -154.535393 -9.310984 -0.463977 0.154509 -12.736579 1.979116 -42.428147 -2.721004 -0.385678 13.194961 1.577425 9.227109 0.588704 1.977900 0.000000 -39.344500 10.007529 -2.797015 -1.541181 11.978833 -2.796408 -12.630478 2.046549 -1.308863 14.302693 0.637530 8.935733 24.142904 4.346000 -0.000000 -67.756000
-1.759740 18.078752 0.468493 -175.622759 -80.916364 -156.261614 -9.295542 -0.475330 0.148093 -13.369700 2.989660 -42.486263 -3.012237 -0.668398 9.969359 1.299173 8.017298 1.754107 1.963900 0.000000 -41.446300 10.104174 -2.863433 -1.607423 11.773261 -3.293065 -12.498477 1.945335 -1.405144 15.106107 0.561946 9.312641 25.687646 4.793500 -0.000001 -68.452400
-2.007681 18.099768 0.446850 -174.413529 -80.300326 -157.503714 -9.268630 -0.488539 0.124205 -14.135624 3.972274 -42.724054 -3.302329 -0.919673 7.302141 1.042108 6.806775 2.552857 1.853000 0.000000 -43.437600 10.185161 -2.920502 -1.683786 11.581431 -3.797949 -12.466499 1.826944 -1.506443 16.251780 0.465291 9.205823 26.649918 4.906500 -0.000000 -68.909400
-2.253534 18.109107 0.425268 -173.592357 -79.819352 -158.371639 -9.224087 -0.497989 0.092464 -15.021793 4.874993 -43.130891 -3.586456 -1.141833 5.181872 0.815890 5.638043 2.933204 1.672100 0.000000 -45.257700 10.252185 -2.966146 -1.774705 11.402575 -4.312597 -12.528695 1.691975 -1.613458 17.722015 0.351740 8.609215 27.041000 4.667600 -0.000000 -69.147100
-2.497187 18.107083 0.403946 -173.059330 -79.478780 -158.958673 -9.160337 -0.501024 0.068430 -15.977823 5.623957 -43.658082 -3.852868 -1.341384 3.543268 0.632533 4.593039 2.897602 1.463800 0.000000 -46.880200 10.307760 -2.997425 -1.885944 11.235721 -4.840572 -12.677676 1.542692 -1.726768 19.497239 0.222996 7.571063 26.894639 4.114300 -0.000000 -69.158500
-2.738632 18.093799 0.383264 -172.696547 -79.270402 -159.379191 -9.080788 -0.498125 0.063655 -16.933873 6.168685 -44.250767 -4.089352 -1.522188 2.320394 0.500258 3.737565 2.475495 1.263199 0.000000 -48.209400 10.352739 -3.012213 -2.020963 11.087765 -5.376721 -12.899849 1.382685 -1.846246 21.549528 0.079091 6.173791 26.271512 3.322200 0.000000 -68.948500
